<?xml version="1.0" standalone="no"?>
<!DOCTYPE svg PUBLIC "-//W3C//DTD SVG 20010904//EN"
 "http://www.w3.org/TR/2001/REC-SVG-20010904/DTD/svg10.dtd">
<svg version="1.0" xmlns="http://www.w3.org/2000/svg"
 width="312.000000pt" height="172.000000pt" viewBox="0 0 312.000000 172.000000"
 preserveAspectRatio="xMidYMid meet">
<metadata>
Created by potrace 1.16, written by Peter Selinger 2001-2019
</metadata>
<g transform="translate(0.000000,172.000000) scale(0.100000,-0.100000)"
fill="#000000" stroke="none">
<path d="M0 860 l0 -860 1560 0 1560 0 0 860 0 860 -1560 0 -1560 0 0 -860z
m1316 751 c65 -30 87 -69 92 -166 4 -68 7 -82 21 -81 10 1 16 -7 16 -19 0 -14
-6 -20 -21 -19 -18 0 -25 -12 -44 -70 -41 -130 -129 -289 -234 -423 -44 -55
-77 -79 -95 -69 -22 14 -10 38 43 90 187 186 320 543 246 663 -23 39 -94 81
-87 52 1 -6 -4 -14 -10 -16 -8 -3 -13 4 -13 17 0 21 -3 22 -56 15 -149 -18
-323 -92 -459 -193 -95 -71 -272 -251 -335 -341 -26 -37 -46 -57 -49 -50 -2 8
-8 17 -13 20 -12 8 82 129 181 232 219 227 494 374 706 376 48 0 83 -5 111
-18z m1564 -437 c0 -9 -18 -36 -40 -60 -40 -43 -111 -175 -181 -338 -45 -102
-46 -111 -20 -96 29 15 58 12 66 -7 6 -18 -6 -32 -71 -79 -25 -18 -27 -23 -15
-38 7 -9 20 -16 27 -16 22 0 120 46 168 79 51 35 66 38 66 14 0 -20 -86 -79
-164 -113 -61 -28 -109 -29 -135 -6 -20 19 -21 18 -36 -17 -8 -20 -15 -43 -15
-50 0 -20 -27 -40 -44 -34 -13 5 -11 19 14 89 96 276 241 571 325 662 27 29
55 34 55 10z m-355 -444 c0 -22 -4 -25 -33 -22 -61 4 -152 -80 -227 -211 -15
-27 -34 -51 -42 -54 -34 -13 -31 17 12 122 25 61 44 113 43 117 -2 4 -31 -8
-64 -27 -57 -32 -62 -38 -67 -76 -7 -52 -33 -89 -75 -106 -26 -11 -33 -10 -53
6 -21 17 -22 21 -11 58 13 44 81 117 109 119 10 1 46 18 81 39 40 24 76 38
100 39 33 1 37 -1 36 -24 -1 -14 -5 -34 -9 -45 -5 -13 9 -4 39 23 80 74 161
95 161 42z m-1085 -22 c-1 -13 -7 -34 -15 -48 -25 -44 -16 -44 30 -1 67 62 95
46 72 -41 l-7 -28 43 31 c49 34 70 31 83 -11 l9 -29 55 34 c88 55 110 44 70
-35 -11 -22 -20 -44 -20 -50 0 -19 45 19 70 59 40 65 73 66 69 2 -3 -49 -1
-61 10 -61 18 0 79 95 94 145 8 29 20 50 28 50 41 0 0 -121 -66 -194 -31 -35
-44 -41 -69 -39 -19 2 -34 11 -41 24 l-11 22 -27 -24 c-32 -27 -69 -39 -93
-30 -13 5 -15 15 -11 45 l5 39 -45 -20 c-46 -20 -73 -14 -73 18 0 25 -18 23
-55 -6 -21 -17 -47 -30 -58 -30 -18 0 -19 5 -14 52 l6 51 -35 -34 c-19 -18
-54 -57 -77 -86 -39 -50 -77 -69 -77 -40 0 7 20 55 45 106 25 51 45 95 45 97
0 3 -31 -12 -70 -32 -64 -35 -70 -41 -70 -70 0 -92 -128 -158 -138 -71 -5 44
80 156 111 144 7 -3 47 15 88 38 86 50 139 59 139 23z m-390 -298 c0 -29 -151
-177 -244 -239 -103 -70 -186 -107 -198 -89 -7 10 -11 9 -23 -6 -13 -18 -14
-18 -12 2 1 16 15 26 58 42 94 36 208 116 304 215 92 95 115 110 115 75z
m1747 -142 c19 -20 50 -105 41 -113 -2 -1 -17 -10 -35 -19 -85 -43 -160 8
-133 90 21 63 88 84 127 42z"/>
</g>
</svg>
